<mxfile host="app.diagrams.net" modified="2021-03-01T12:12:53.543Z" agent="5.0 (Windows NT 10.0; Win64; x64) AppleWebKit/537.36 (KHTML, like Gecko) Chrome/88.0.4324.190 Safari/537.36" etag="92uZvPoK052lDi9se-Ld" version="14.4.3" type="github">
  <diagram id="87kSOXtyuZORir1cVNWZ" name="Page-1">
    <mxGraphModel dx="1038" dy="548" grid="1" gridSize="10" guides="1" tooltips="1" connect="1" arrows="1" fold="1" page="1" pageScale="1" pageWidth="827" pageHeight="1169" math="0" shadow="0">
      <root>
        <mxCell id="0" />
        <mxCell id="1" parent="0" />
        <mxCell id="Sjt6vZLdT5mPOzY2PxLy-1" value="r:Robot" style="shape=umlLifeline;perimeter=lifelinePerimeter;whiteSpace=wrap;html=1;container=1;collapsible=0;recursiveResize=0;outlineConnect=0;" parent="1" vertex="1">
          <mxGeometry x="130" y="20" width="100" height="290" as="geometry" />
        </mxCell>
        <mxCell id="Sjt6vZLdT5mPOzY2PxLy-2" value="" style="html=1;points=[];perimeter=orthogonalPerimeter;" parent="Sjt6vZLdT5mPOzY2PxLy-1" vertex="1">
          <mxGeometry x="45" y="70" width="10" height="180" as="geometry" />
        </mxCell>
        <mxCell id="Sjt6vZLdT5mPOzY2PxLy-3" value="1. Meghal()" style="html=1;verticalAlign=bottom;endArrow=block;entryX=1;entryY=0;" parent="Sjt6vZLdT5mPOzY2PxLy-1" target="Sjt6vZLdT5mPOzY2PxLy-2" edge="1">
          <mxGeometry relative="1" as="geometry">
            <mxPoint x="-60" y="70" as="sourcePoint" />
          </mxGeometry>
        </mxCell>
        <mxCell id="Sjt6vZLdT5mPOzY2PxLy-4" value="" style="html=1;verticalAlign=bottom;endArrow=open;dashed=1;endSize=8;" parent="Sjt6vZLdT5mPOzY2PxLy-1" edge="1">
          <mxGeometry x="0.6522" y="-67" relative="1" as="geometry">
            <mxPoint x="-45" y="240" as="targetPoint" />
            <mxPoint as="offset" />
            <mxPoint x="55" y="240" as="sourcePoint" />
          </mxGeometry>
        </mxCell>
        <mxCell id="Sjt6vZLdT5mPOzY2PxLy-5" value="" style="shape=umlDestroy;whiteSpace=wrap;html=1;strokeWidth=3;" parent="Sjt6vZLdT5mPOzY2PxLy-1" vertex="1">
          <mxGeometry x="35" y="270" width="30" height="30" as="geometry" />
        </mxCell>
        <mxCell id="Sjt6vZLdT5mPOzY2PxLy-6" value="a: Aszteroida" style="shape=umlLifeline;perimeter=lifelinePerimeter;whiteSpace=wrap;html=1;container=1;collapsible=0;recursiveResize=0;outlineConnect=0;" parent="1" vertex="1">
          <mxGeometry x="290" y="20" width="100" height="300" as="geometry" />
        </mxCell>
        <mxCell id="Sjt6vZLdT5mPOzY2PxLy-7" value="" style="html=1;points=[];perimeter=orthogonalPerimeter;" parent="Sjt6vZLdT5mPOzY2PxLy-6" vertex="1">
          <mxGeometry x="45" y="90" width="10" height="30" as="geometry" />
        </mxCell>
        <mxCell id="Sjt6vZLdT5mPOzY2PxLy-8" value="2. HajoElhagy(r: Robot)" style="html=1;verticalAlign=bottom;endArrow=block;entryX=0;entryY=0;" parent="1" source="Sjt6vZLdT5mPOzY2PxLy-1" target="Sjt6vZLdT5mPOzY2PxLy-7" edge="1">
          <mxGeometry relative="1" as="geometry">
            <mxPoint x="265" y="110" as="sourcePoint" />
            <Array as="points">
              <mxPoint x="270" y="110" />
            </Array>
          </mxGeometry>
        </mxCell>
        <mxCell id="Sjt6vZLdT5mPOzY2PxLy-9" value="" style="html=1;verticalAlign=bottom;endArrow=open;dashed=1;endSize=8;exitX=0;exitY=0.95;" parent="1" source="Sjt6vZLdT5mPOzY2PxLy-7" target="Sjt6vZLdT5mPOzY2PxLy-1" edge="1">
          <mxGeometry relative="1" as="geometry">
            <mxPoint x="265" y="186" as="targetPoint" />
          </mxGeometry>
        </mxCell>
        <mxCell id="Sjt6vZLdT5mPOzY2PxLy-10" value="p: Palya" style="shape=umlLifeline;perimeter=lifelinePerimeter;whiteSpace=wrap;html=1;container=1;collapsible=0;recursiveResize=0;outlineConnect=0;" parent="1" vertex="1">
          <mxGeometry x="470" y="20" width="100" height="300" as="geometry" />
        </mxCell>
        <mxCell id="Sjt6vZLdT5mPOzY2PxLy-11" value="" style="html=1;points=[];perimeter=orthogonalPerimeter;" parent="Sjt6vZLdT5mPOzY2PxLy-10" vertex="1">
          <mxGeometry x="45" y="150" width="10" height="50" as="geometry" />
        </mxCell>
        <mxCell id="Sjt6vZLdT5mPOzY2PxLy-12" value="3. RemoveAiVezerli(r, a)" style="html=1;verticalAlign=bottom;endArrow=block;entryX=0;entryY=0;" parent="1" source="Sjt6vZLdT5mPOzY2PxLy-1" target="Sjt6vZLdT5mPOzY2PxLy-11" edge="1">
          <mxGeometry relative="1" as="geometry">
            <mxPoint x="445" y="150" as="sourcePoint" />
          </mxGeometry>
        </mxCell>
        <mxCell id="Sjt6vZLdT5mPOzY2PxLy-13" value="" style="html=1;verticalAlign=bottom;endArrow=open;dashed=1;endSize=8;exitX=0;exitY=0.95;" parent="1" source="Sjt6vZLdT5mPOzY2PxLy-11" target="Sjt6vZLdT5mPOzY2PxLy-1" edge="1">
          <mxGeometry x="-0.1952" y="62" relative="1" as="geometry">
            <mxPoint x="445" y="226" as="targetPoint" />
            <mxPoint as="offset" />
          </mxGeometry>
        </mxCell>
        <mxCell id="bfE-Ax9V6jSuzULNeVRA-2" value="" style="ellipse;html=1;shape=endState;fillColor=#000000;strokeColor=#ff0000;" parent="1" vertex="1">
          <mxGeometry x="30" y="30" width="30" height="30" as="geometry" />
        </mxCell>
      </root>
    </mxGraphModel>
  </diagram>
</mxfile>
